<?xml version="1.0" standalone="no"?><!DOCTYPE svg PUBLIC "-//W3C//DTD SVG 1.1//EN" "http://www.w3.org/Graphics/SVG/1.1/DTD/svg11.dtd"><svg t="1646668462880" class="icon" viewBox="0 0 1024 1024" version="1.1" xmlns="http://www.w3.org/2000/svg" p-id="5368" xmlns:xlink="http://www.w3.org/1999/xlink" width="200" height="200"><defs><style type="text/css"></style></defs><path d="M899.897143 149.965714l-51.714286 51.714286-51.725714 51.725714-51.714286 51.714286-51.725714 51.725714-51.714286 51.714286-51.725714 51.725714L537.862857 512l-51.725714 51.714286-51.714286 51.725714-51.725714 51.714286-51.714286-51.714286-51.725714-51.725714L227.542857 512l-51.725714-51.714286-51.714286-51.725714L20.662857 512l51.714286 51.725714 51.725714 51.714286 51.714286 51.714286 51.725714 51.725714 51.714286 51.714286 51.725714 51.725714 51.714286 51.714286 103.44-103.44 51.725714-51.714286 51.714286-51.725714 51.725714-51.714286 51.714286-51.725714L744.742857 512l51.714286-51.714286 51.725714-51.725714 51.714286-51.714286 51.725714-51.725714 51.714286-51.714286z" p-id="5369" fill="#FFFFFF"></path></svg>